<?xml version="1.0" encoding="utf-8"?>
<!-- Generator: Adobe Illustrator 28.2.0, SVG Export Plug-In . SVG Version: 6.00 Build 0)  -->
<svg version="1.1" id="Layer_1" xmlns="http://www.w3.org/2000/svg" xmlns:xlink="http://www.w3.org/1999/xlink" x="0px" y="0px"
	 viewBox="0 0 660 543.3" style="enable-background:new 0 0 660 543.3;" xml:space="preserve">
<style type="text/css">
	.st0{fill:#F2F2F2;}
	.st1{fill:#FFFFFF;}
	.st2{fill:#CCCCCC;}
	.st3{fill:#CACACA;}
	.st4{fill:#00C6E6;}
	.st5{fill:#FFB6B6;}
	.st6{fill:#E4E4E4;}
	.st7{fill:#2F2E41;}
</style>
<path class="st0" d="M287.8,505.7l-23,3.5l24.1-11.4c2-22.1-3.2-45.9-3.2-45.9s-49.7,8.6-65,31.4s-7.1,39.8,9.6,51
	c16.7,11.2,35.6,12.4,50.9-10.4C284.5,519,286.6,512.6,287.8,505.7z"/>
<path class="st1" d="M260.7,507.5l-0.8,1.1c-8.8,13-17.9,21.7-27,26c-0.1,0.1-0.3,0.1-0.4,0.2l-0.3-0.6l-0.3-0.6
	c10-4.5,19-14.3,26.7-25.7c0.3-0.4,0.5-0.7,0.8-1.1c3.2-4.8,6.2-9.9,8.9-14.9c0.2-0.4,0.4-0.8,0.6-1.2c3.5-6.7,6.6-13.3,9.1-19.1
	c0.2-0.4,0.4-0.8,0.5-1.2c4.2-9.9,6.8-17.4,7.3-19.1c0.1-0.2,0.1-0.3,0.1-0.3l0.6,0.2l0,0l0.6,0.2c0,0-0.1,0.4-0.4,1.1
	c-0.9,2.6-3.4,9.6-7.1,18.5c-0.2,0.4-0.3,0.8-0.5,1.2c-2,4.7-4.4,10-7.1,15.3c-0.7,1.3-1.4,2.7-2,3.9c-0.2,0.4-0.4,0.8-0.6,1.2
	C266.6,498.1,263.7,503,260.7,507.5z"/>
<path class="st1" d="M279.9,470.9c-0.4-0.2-0.8-0.4-1.2-0.6c-1.1-0.6-2.2-1.2-3.2-1.9c-4.5-3-8.2-6.9-10.9-11.6
	c-0.4,0.1-0.9,0.3-1.3,0.4c2.8,4.9,6.8,9.1,11.5,12.3c1.1,0.8,2.3,1.4,3.5,2.1c0.4,0.2,0.8,0.4,1.2,0.6c3.4,1.6,7,2.7,10.7,3.3
	c0-0.5-0.1-0.9-0.1-1.4C286.4,473.5,283.1,472.5,279.9,470.9z"/>
<path class="st1" d="M260.7,507.5c-0.4-0.2-0.8-0.5-1.2-0.7c-0.4-0.3-0.9-0.5-1.3-0.8c-13.3-9-19.1-25.7-14.3-41
	c-0.6,0.3-1.1,0.6-1.6,0.8c-4.4,15.6,1.8,32.2,15.2,41.2c0.4,0.3,0.8,0.6,1.3,0.8c0.4,0.3,0.8,0.5,1.2,0.7c8.3,4.7,18,6,27.2,3.8
	c0.2-0.5,0.3-1,0.4-1.5C278.5,513.3,268.9,512.1,260.7,507.5z"/>
<path id="b378a409-d352-4bc8-8df5-72c04014c528-285" class="st0" d="M47.2,184.9c-14.4,0-26-11.6-26-26s11.6-26,26-26
	c14.4,0,26,11.6,26,26l0,0C73.2,173.3,61.6,184.9,47.2,184.9z M47.2,135.4c-13,0-23.6,10.5-23.6,23.6s10.5,23.6,23.6,23.6
	c13,0,23.6-10.5,23.6-23.6l0,0C70.8,145.9,60.2,135.4,47.2,135.4L47.2,135.4z"/>
<path class="st2" d="M330.7,185.9c-14.9,0-27-12.1-27.1-27c0-14.9,12.1-27,27-27.1c14.9,0,27,12.1,27.1,27c0,7.2-2.8,14.1-7.9,19.2
	C344.8,183.1,337.9,185.9,330.7,185.9z M330.7,133.9c-13.8,0-25,11.2-25,25c0,13.8,11.2,25,25,25c13.8,0,24.9-11.2,25-25
	C355.7,145.1,344.5,133.9,330.7,133.9z"/>
<path id="eaf0a386-106a-4b50-bbfe-53e3b7aaa4b9-286" class="st3" d="M330.7,148.1c-6,0-10.9,4.9-10.8,10.9c0,6,4.9,10.9,10.9,10.8
	c6,0,10.8-4.9,10.8-10.8C341.6,152.9,336.7,148.1,330.7,148.1C330.7,148.1,330.7,148.1,330.7,148.1z"/>
<path id="f8cfee77-1129-4225-b1d2-3db262cea721-287" class="st3" d="M614.2,148.1c-6,0-10.9,4.9-10.8,10.9c0,6,4.9,10.9,10.9,10.8
	c6,0,10.8-4.9,10.8-10.8C625.1,152.9,620.2,148.1,614.2,148.1C614.2,148.1,614.2,148.1,614.2,148.1z"/>
<path id="aa555a1b-e556-4d4d-94e2-268c2a3db786-288" class="st4" d="M571.6,0c-2.3,0-4.1,1.9-4.1,4.1c0,2.3,1.8,4.1,4.1,4.1h83.8
	c2.3,0,4.1-1.9,4.1-4.1c0-2.3-1.8-4.1-4.1-4.1H571.6z"/>
<path id="a3a07e36-e50f-4b72-9ce2-373f87af9ffe-289" class="st4" d="M571.6,24.3c-2.3,0-4.1,1.8-4.1,4.1c0,2.3,1.8,4.1,4.1,4.1h83.8
	c2.3,0,4.1-1.9,4.1-4.1c0-2.3-1.8-4.1-4.1-4.1H571.6z"/>
<path id="b19e454f-549d-47de-9809-ad624ec5b949-290" class="st4" d="M571.6,48.9c-2.3,0-4.1,1.8-4.1,4.1c0,2.3,1.8,4.1,4.1,4.1h83.8
	c2.3,0,4.1-1.9,4.1-4.1c0-2.3-1.8-4.1-4.1-4.1H571.6z"/>
<path class="st5" d="M146.6,300.8c3.5-4.3,2.8-10.7-1.5-14.1c-0.5-0.4-1-0.7-1.5-1l6-35.2l-17,7.5l-3.1,32.3
	c-2.4,5.1-0.2,11.1,4.9,13.4C138.6,305.6,143.7,304.4,146.6,300.8L146.6,300.8z"/>
<path class="st6" d="M125.8,280.5l-3.1-88.1l0-0.1l16.6-80.9c1.1-5.5,5.7-9.5,11.3-10c6.9-0.6,13,4.6,13.6,11.5
	c0.1,1.1,0,2.2-0.2,3.4L151.1,185l-0.3,96.1L125.8,280.5z"/>
<polygon class="st5" points="208,529.8 220.3,529.8 226.1,482.5 208,482.5 "/>
<path class="st7" d="M204.9,525.8l24.1,0h0c8.5,0,15.4,6.9,15.4,15.4v0.5l-39.5,0L204.9,525.8z"/>
<polygon class="st5" points="155,529.8 167.3,529.8 173.1,482.5 155,482.5 "/>
<path class="st7" d="M151.9,525.8l24.1,0h0c8.5,0,15.4,6.9,15.4,15.4v0.5l-39.5,0L151.9,525.8z"/>
<path class="st7" d="M222.7,199.8l4.7,10l14.1,130.7L227.7,514l-24.4,0.8l4.2-160.3l-30.2-65l-1.8,228h-21.4l-20.2-228.8
	c0,0-7-63.7,18.3-88.9H222.7z"/>
<path class="st6" d="M152.2,200.3l-0.4,0l-12.3-76.6c-1.6-10,3.8-19.8,13.1-23.8l12.7-5.4l39.7-0.4l15.8,9.4
	c12.4,7.4,19.2,21.4,17.3,35.7l-9.2,71.2L152.2,200.3z"/>
<path class="st5" d="M227.2,308.2c-3.5-4.3-3-10.6,1.3-14.2c0.5-0.4,0.9-0.7,1.5-1l-6.5-35.1l17.1,7.3l3.5,32.3
	c2.4,5,0.3,11.1-4.7,13.5C235.3,312.9,230.2,311.8,227.2,308.2L227.2,308.2z"/>
<path class="st6" d="M209,201L209,201l5.4-82.4c0.4-5.6,4.4-10.2,9.8-11.5l0,0c6.8-1.5,13.5,2.8,15,9.6c0.2,1.1,0.3,2.2,0.3,3.3
	l-3.4,69.8L249,285l-24.9,2.9L209,201z"/>
<circle class="st5" cx="190.1" cy="61.4" r="26.2"/>
<path class="st7" d="M145.4,94.6c2.8-2.4,6.2-3.9,9.2-5.9c3-2,5.8-4.9,6.3-8.6c0.6-4.4-2.2-8.3-4-12.3c-5.6-12.5-0.7-28.7,10.9-36
	s28.3-4.7,37.2,5.7c4.1-5.3,13.2-5.3,17.3,0s1.8,14.1-4.3,16.8c-4.3,1.8-9.5,0.9-13.6,3.2c-4.2,2.5-5.8,8-5.1,12.8s3.4,9.1,5.9,13.3
	l-5.7-8.6c3.1,6.5,6.2,13.3,6.7,20.5c0.5,7.2-2.3,15.1-8.7,18.7c-5.5,3.1-13.2,2.6-17.2,7.5c-1.6,2.1-2.4,4.6-2.3,7.2
	c-6.1-0.9-12.3-1.8-18.4-2.6c-6.8-1-13.6-1.9-20.4-2.9c-0.6-2.2-1.1-4.4-1.3-6.7C137.1,108.6,139.2,99.8,145.4,94.6z"/>
<path id="af6132d7-3197-44cc-9af2-6abab932cbd2-291" class="st4" d="M288.1,0c-2.3,0-4.1,1.9-4.1,4.1c0,2.3,1.8,4.1,4.1,4.1h83.8
	c2.3,0,4.1-1.8,4.1-4.1c0-2.3-1.8-4.1-4.1-4.1H288.1z"/>
<path id="f68869de-5685-49d7-9d26-cf370d102e2e-292" class="st4" d="M288.1,24.3c-2.3,0-4.1,1.8-4.1,4.1c0,2.3,1.8,4.1,4.1,4.1h83.8
	c2.3,0,4.1-1.8,4.1-4.1c0-2.3-1.8-4.1-4.1-4.1H288.1z"/>
<path id="b025d6d3-8b66-469d-ad7c-6ebfa91ed46d-293" class="st4" d="M288.1,48.9c-2.3,0-4.1,1.9-4.1,4.1c0,2.3,1.8,4.1,4.1,4.1h83.8
	c2.3,0,4.1-1.8,4.1-4.1c0-2.3-1.8-4.1-4.1-4.1H288.1z"/>
<path id="b9def71e-ddd4-4c35-bcb2-21590e713d1b-294" class="st0" d="M5.1,0C2.9,0,1,1.9,1,4.1c0,2.3,1.8,4.1,4.1,4.1h83.8
	c2.3,0,4.1-1.9,4.1-4.1C93,1.8,91.2,0,88.9,0H5.1z"/>
<path id="f1172eca-5787-475f-9d55-c603006fea48-295" class="st0" d="M5.1,24.3c-2.3,0-4.1,1.9-4.1,4.1c0,2.3,1.8,4.1,4.1,4.1h83.8
	c2.3,0,4.1-1.8,4.1-4.1c0-2.3-1.8-4.1-4.1-4.1H5.1z"/>
<path id="e397f236-7fcd-485a-ac75-06bd6e05da59-296" class="st0" d="M5.1,48.9c-2.3,0-4.1,1.9-4.1,4.1c0,2.3,1.8,4.1,4.1,4.1h83.8
	c2.3,0,4.1-1.9,4.1-4.1c0-2.3-1.8-4.1-4.1-4.1H5.1z"/>
<path id="ed8c2be5-7bf0-4420-a5cd-4927e344f762-297" class="st4" d="M572.1,0c-2.3,0-4.1,1.9-4.1,4.1c0,2.3,1.8,4.1,4.1,4.1h83.8
	c2.3,0,4.1-1.9,4.1-4.1c0-2.3-1.8-4.1-4.1-4.1H572.1z"/>
<path id="b618e516-c702-4fef-a5ee-c6190b0c4fe9-298" class="st4" d="M572.1,24.3c-2.3,0-4.1,1.8-4.1,4.1c0,2.3,1.8,4.1,4.1,4.1h83.8
	c2.3,0,4.1-1.9,4.1-4.1c0-2.3-1.8-4.1-4.1-4.1H572.1z"/>
<path id="ff12c586-9c34-44df-9822-41eb07546e2b-299" class="st4" d="M572.1,48.9c-2.3,0-4.1,1.8-4.1,4.1c0,2.3,1.8,4.1,4.1,4.1h83.8
	c2.3,0,4.1-1.9,4.1-4.1c0-2.3-1.8-4.1-4.1-4.1H572.1z"/>
<path class="st3" d="M370.5,543.3H1.2c-0.7,0-1.2-0.5-1.2-1.2c0-0.7,0.5-1.2,1.2-1.2h369.3c0.7,0,1.2,0.5,1.2,1.2
	C371.7,542.8,371.1,543.3,370.5,543.3z"/>
<path class="st2" d="M614.2,187.9c-16,0-29-13-29-29s13-29,29-29c16,0,29,13,29,29C643.2,174.9,630.2,187.9,614.2,187.9z
	 M614.2,131.9c-14.9,0-27,12.1-27,27s12.1,27,27,27c14.9,0,27-12.1,27-27l0,0C641.2,144,629.1,132,614.2,131.9z"/>
</svg>
